<?xml version="1.0" encoding="UTF-8" standalone="no"?>
<svg
   xmlns:dc="http://purl.org/dc/elements/1.1/"
   xmlns:cc="http://creativecommons.org/ns#"
   xmlns:rdf="http://www.w3.org/1999/02/22-rdf-syntax-ns#"
   xmlns:svg="http://www.w3.org/2000/svg"
   xmlns="http://www.w3.org/2000/svg"
   xmlns:sodipodi="http://sodipodi.sourceforge.net/DTD/sodipodi-0.dtd"
   xmlns:inkscape="http://www.inkscape.org/namespaces/inkscape"
   version="1.1"
   x="0"
   y="0"
   width="259"
   height="92.263474"
   viewBox="0 0 259 92.263474"
   id="svg850"
   sodipodi:docname="dotNetFoundationHorizontal.svg"
   inkscape:version="0.92.4 (5da689c313, 2019-01-14)">
  <metadata
     id="metadata856">
    <rdf:RDF>
      <cc:Work
         rdf:about="">
        <dc:format>image/svg+xml</dc:format>
        <dc:type
           rdf:resource="http://purl.org/dc/dcmitype/StillImage" />
        <dc:title></dc:title>
      </cc:Work>
    </rdf:RDF>
  </metadata>
  <defs
     id="defs854" />
  <sodipodi:namedview
     pagecolor="#ffffff"
     bordercolor="#666666"
     borderopacity="1"
     objecttolerance="10"
     gridtolerance="10"
     guidetolerance="10"
     inkscape:pageopacity="0"
     inkscape:pageshadow="2"
     inkscape:window-width="1920"
     inkscape:window-height="1017"
     id="namedview852"
     showgrid="false"
     showguides="true"
     inkscape:zoom="5.5250965"
     inkscape:cx="129.5"
     inkscape:cy="46.131737"
     inkscape:window-x="-8"
     inkscape:window-y="-8"
     inkscape:window-maximized="1"
     inkscape:current-layer="svg850"
     fit-margin-top="0"
     fit-margin-left="0"
     fit-margin-right="0"
     fit-margin-bottom="0" />
  <g
     id="g861"
     transform="matrix(0.09920804,0,0,0.09920804,-2.3022218,-3.2242613)">
    <path
       d="m 542.5,32.5 c -229.24,0 -419.72,165.89 -457.982,384.168 44.065,0.035 79.777,35.764 79.777,79.837 0,44.092 -35.745,79.838 -79.84,79.838 -0.09,0 -0.177,-0.008 -0.267,-0.008 37.447,219.26 228.375,386.165 458.312,386.165 256.812,0 465,-208.188 465,-465 0,-256.812 -208.188,-465 -465,-465"
       id="path819"
       inkscape:connector-curvature="0"
       style="fill:#68217a" />
    <path
       d="M 456.858,638.43 H 392.781 L 276.617,461.334 c -6.814,-10.352 -11.531,-18.149 -14.152,-23.39 h -0.786 c 1.048,10.483 1.572,25.683 1.572,45.601 V 638.43 H 203.302 V 356.57 h 68.401 l 111.84,171.593 14.152,22.997 h 0.786 c -1.048,-6.814 -1.572,-19.721 -1.572,-38.722 V 356.57 h 59.949 z"
       id="path821"
       inkscape:connector-curvature="0"
       style="fill:#ffffff" />
    <path
       d="M 690.366,638.43 H 521.328 V 356.57 H 683.88 v 51.694 h -99.064 v 62.701 H 677 v 51.498 h -92.184 v 64.47 h 105.55 z"
       id="path823"
       inkscape:connector-curvature="0"
       style="fill:#ffffff" />
    <path
       d="M 933.505,408.264 H 853.114 V 638.43 H 789.43 V 408.264 H 709.432 V 356.57 h 224.073 z"
       id="path825"
       inkscape:connector-curvature="0"
       style="fill:#ffffff" />
    <path
       d="m 140.706,497.917 c 0,32.447 -26.302,58.75 -58.75,58.75 -32.447,0 -58.75,-26.303 -58.75,-58.75 0,-32.448 26.303,-58.75 58.75,-58.75 32.448,0 58.75,26.302 58.75,58.75"
       id="path847"
       inkscape:connector-curvature="0"
       style="fill:#cf18fd" />
    <g
       id="text1407"
       style="font-style:normal;font-variant:normal;font-weight:normal;font-stretch:normal;font-size:329.43261719px;line-height:1.25;font-family:'Avenir LT Std';-inkscape-font-specification:'Avenir LT Std';letter-spacing:0px;word-spacing:0px;fill:#68217a;fill-opacity:1;stroke:none;stroke-width:3.43158984"
       aria-label="foundation">
      <path
         id="path5139"
         style="stroke-width:3.43158984"
         d="m 1097.1658,625.00616 h 19.7659 v -134.4085 h 35.5788 V 472.8083 h -35.5788 v -42.49681 c 0,-27.34291 8.5653,-40.52021 26.6841,-40.52021 7.5769,0 13.1773,0.98829 17.7894,3.29432 l 3.9531,-17.13049 c -5.9297,-2.63546 -13.1773,-3.9532 -22.7308,-3.9532 -19.4365,0 -45.4617,11.85958 -45.4617,51.06206 v 49.74433 h -31.6255 v 17.78936 h 31.6255 z"
         inkscape:connector-curvature="0" />
      <path
         id="path5141"
         style="stroke-width:3.43158984"
         d="m 1175.2001,548.90723 c 0,46.45 33.2727,80.05213 80.0522,80.05213 46.7794,0 80.0521,-33.60213 80.0521,-80.05213 0,-46.45 -33.2727,-80.05213 -80.0521,-80.05213 -46.7795,0 -80.0522,33.60213 -80.0522,80.05213 z m 19.766,0 c 0,-34.26099 23.0603,-62.26276 60.2862,-62.26276 37.2259,0 60.2861,28.00177 60.2861,62.26276 0,34.26099 -23.0602,62.26276 -60.2861,62.26276 -37.2259,0 -60.2862,-28.00177 -60.2862,-62.26276 z"
         inkscape:connector-curvature="0" />
      <path
         id="path5143"
         style="stroke-width:3.43158984"
         d="m 1508.1742,472.8083 h -19.766 v 76.09893 c 0,41.83794 -23.3897,62.26276 -52.7092,62.26276 -31.2961,0 -38.2142,-24.04858 -38.2142,-48.75602 V 472.8083 h -19.7659 v 90.59397 c 0,33.27269 10.5418,65.55709 57.9801,65.55709 24.7074,0 44.144,-13.83617 52.0504,-30.63724 h 0.9883 c 0.6588,2.9649 0.9882,15.48334 1.3177,26.68404 h 19.7659 c 0,-7.90638 -1.6471,-31.62553 -1.6471,-42.82624 z"
         inkscape:connector-curvature="0" />
      <path
         id="path5145"
         style="stroke-width:3.43158984"
         d="m 1562.7416,625.00616 h 19.7659 v -76.09893 c 0,-41.83794 23.3897,-62.26276 52.7092,-62.26276 31.2961,0 38.2142,24.04858 38.2142,48.75602 v 89.60567 h 19.766 v -90.59397 c 0,-33.27269 -10.5419,-65.55709 -57.9802,-65.55709 -24.7074,0 -44.1439,13.83617 -52.0503,30.63724 h -0.9883 c -0.6589,-2.9649 -0.9883,-15.48334 -1.3177,-26.68404 h -19.766 c 0,7.90638 1.6472,31.62553 1.6472,42.82624 z"
         inkscape:connector-curvature="0" />
      <path
         id="path5147"
         style="stroke-width:3.43158984"
         d="m 1879.208,625.00616 h 19.7659 V 375.95511 h -19.7659 v 123.53723 h -0.6589 c -12.189,-21.08369 -38.2142,-30.63724 -60.945,-30.63724 -46.7795,0 -80.0522,33.60213 -80.0522,80.05213 0,46.45 33.2727,80.05213 80.0522,80.05213 22.7308,0 48.756,-9.55355 60.945,-30.63724 h 0.6589 z m 1.9766,-76.09893 c 0,34.26099 -27.6724,62.26276 -63.5805,62.26276 -37.2259,0 -60.2862,-28.00177 -60.2862,-62.26276 0,-34.26099 23.0603,-62.26276 60.2862,-62.26276 35.9081,0 63.5805,28.00177 63.5805,62.26276 z"
         inkscape:connector-curvature="0" />
      <path
         id="path5149"
         style="stroke-width:3.43158984"
         d="m 2065.7749,523.87035 c 0,-38.54362 -23.7191,-55.01525 -60.6156,-55.01525 -19.7659,0 -43.4851,7.57695 -57.9801,21.41312 l 11.5301,13.50674 c 13.5067,-11.53014 28.6606,-17.13049 46.45,-17.13049 24.378,0 42.8262,10.54184 42.8262,36.89645 v 9.22411 h -23.0602 c -29.9784,0 -84.3348,4.61206 -84.3348,51.06206 0,32.28439 27.6724,45.13227 53.6975,45.13227 25.6958,0 42.1674,-9.22412 53.3681,-28.66064 h 0.6589 c 0,8.56525 0.6588,17.13049 1.9766,24.70744 h 18.4482 c -2.306,-17.45992 -2.9649,-34.26099 -2.9649,-63.90992 z m -17.7894,24.70745 v 10.21241 c 0,25.36631 -10.8712,52.37978 -53.0386,52.37978 -16.4716,0 -34.5904,-9.55354 -34.5904,-28.3312 0,-26.02518 32.9432,-34.26099 65.8865,-34.26099 z"
         inkscape:connector-curvature="0" />
      <path
         id="path5151"
         style="stroke-width:3.43158984"
         d="m 2193.1109,472.8083 h -43.4851 v -43.81454 h -19.7659 v 43.81454 h -32.9433 v 17.78936 h 32.9433 v 99.15921 c 0,21.74256 10.8713,39.20249 39.2025,39.20249 7.5769,0 18.4482,-2.63546 25.6957,-5.27093 l -1.6472,-17.78936 c -6.918,2.9649 -14.8244,5.27092 -22.4014,5.27092 -13.1773,0 -21.0837,-7.90638 -21.0837,-21.41312 v -99.15921 h 43.4851 z"
         inkscape:connector-curvature="0" />
      <path
         id="path5153"
         style="stroke-width:3.43158984"
         d="m 2231.9788,625.00616 h 19.7659 V 472.8083 h -19.7659 z m -4.9415,-212.48403 c 0,8.23581 6.5886,14.82446 14.8244,14.82446 8.2359,0 14.8245,-6.58865 14.8245,-14.82446 0,-8.23582 -6.5886,-14.82447 -14.8245,-14.82447 -8.2358,0 -14.8244,6.58865 -14.8244,14.82447 z"
         inkscape:connector-curvature="0" />
      <path
         id="path5155"
         style="stroke-width:3.43158984"
         d="m 2299.2603,548.90723 c 0,46.45 33.2727,80.05213 80.0521,80.05213 46.7795,0 80.0522,-33.60213 80.0522,-80.05213 0,-46.45 -33.2727,-80.05213 -80.0522,-80.05213 -46.7794,0 -80.0521,33.60213 -80.0521,80.05213 z m 19.766,0 c 0,-34.26099 23.0602,-62.26276 60.2861,-62.26276 37.2259,0 60.2862,28.00177 60.2862,62.26276 0,34.26099 -23.0603,62.26276 -60.2862,62.26276 -37.2259,0 -60.2861,-28.00177 -60.2861,-62.26276 z"
         inkscape:connector-curvature="0" />
      <path
         id="path5157"
         style="stroke-width:3.43158984"
         d="m 2503.4261,625.00616 h 19.766 v -76.09893 c 0,-41.83794 23.3897,-62.26276 52.7092,-62.26276 31.2961,0 38.2142,24.04858 38.2142,48.75602 v 89.60567 h 19.766 v -90.59397 c 0,-33.27269 -10.5419,-65.55709 -57.9802,-65.55709 -24.7074,0 -44.144,13.83617 -52.0503,30.63724 h -0.9883 c -0.6589,-2.9649 -0.9883,-15.48334 -1.3178,-26.68404 h -19.7659 c 0,7.90638 1.6471,31.62553 1.6471,42.82624 z"
         inkscape:connector-curvature="0" />
    </g>
  </g>
</svg>
